<svg width="32" height="32" viewBox="0 0 32 32" fill="none" xmlns="http://www.w3.org/2000/svg">
<rect x="0.5" y="0.5" width="31" height="31" rx="3.5" stroke="#FECE00"/>
<path fill-rule="evenodd" clip-rule="evenodd" d="M22.9167 6.16667H23.7917C24.6421 6.16821 25.4573 6.50672 26.0586 7.10807C26.6599 7.70941 26.9985 8.52457 27 9.375V23.9583C26.9985 24.8088 26.6599 25.6239 26.0586 26.2253C25.4573 26.8266 24.6421 27.1651 23.7917 27.1667H9.20833C8.3579 27.1651 7.54275 26.8266 6.9414 26.2253C6.34006 25.6239 6.00154 24.8088 6 23.9583V9.375C6.00154 8.52457 6.34006 7.70941 6.9414 7.10807C7.54275 6.50672 8.3579 6.16821 9.20833 6.16667H10.0833V5H11.8333V6.16667H21.1667V5H22.9167V6.16667ZM10.0833 7.91667H9.20833C8.40333 7.91667 7.75 8.57 7.75 9.375V11.4108H25.25V9.375C25.25 8.57 24.5967 7.91667 23.7917 7.91667H22.9167V9.66667H21.1667V7.91667H11.8333V9.66667H10.0833V7.91667ZM9.20833 25.4167H23.7917C24.5967 25.4167 25.25 24.7633 25.25 23.9583V13.1608H7.75V23.9583C7.75 24.7633 8.40333 25.4167 9.20833 25.4167ZM16.5 17.7633L19.3817 14.8817L20.6183 16.1183L17.7367 19L20.6183 21.8817L19.3817 23.1183L16.5 20.2367L13.6183 23.1183L12.3817 21.8817L15.2633 19L12.3817 16.1183L13.6183 14.8817L16.5 17.7633Z" fill="#F6FAFA"/>
</svg>
